# xmcd CD database file
#
# Track frame offsets:
#	150
#	21968
#	50807
#	73639
#	92927
#	114144
#	139263
#	164769
#	185766
#	204864
#	234094
#	277442
#	294417
#	317152
#
# Disc length: 4779 seconds
#
# Revision: 7
# Processed by: cddbd v1.5.2PL0 Copyright (c) Steve Scherf et al.
# Submitted via: CDex 1.98
#
DISCID=d812a90e
DTITLE=Stevie Ray Vaughan - Live Alive
DYEAR=2014
DGENRE=Blues
TTITLE0=Say What!
TTITLE1=Ain't Gone 'n' Give Up on Love
TTITLE2=Pride and Joy
TTITLE3=Mary Had a Little Lamb
TTITLE4=Superstition
TTITLE5=I'm Leaving You
TTITLE6=Cold Shot
TTITLE7=Willie the Wimp
TTITLE8=Look at Little Sister
TTITLE9=Texas Flood
TTITLE10=Voodoo Chile (Slight Return)
TTITLE11=Love Struck Baby
TTITLE12=Change It
TTITLE13=Life Without You
EXTD=YEAR: 2014
EXTT0=
EXTT1=
EXTT2=
EXTT3=
EXTT4=
EXTT5=
EXTT6=
EXTT7=
EXTT8=
EXTT9=
EXTT10=
EXTT11=
EXTT12=
EXTT13=
PLAYORDER=
